<?xml version="1.0" encoding="UTF-8" standalone="no"?>
<!DOCTYPE svg PUBLIC "-//W3C//DTD SVG 1.1//EN"
 "http://www.w3.org/Graphics/SVG/1.1/DTD/svg11.dtd">
<!-- Generated by graphviz version 9.0.0 (0)
 -->
<!-- Title: Simbad Relational Database Pages: 1 -->
<svg width="1099pt" height="881pt"
 viewBox="0.00 0.00 1099.28 881.07" xmlns="http://www.w3.org/2000/svg" xmlns:xlink="http://www.w3.org/1999/xlink">
<g id="graph0" class="graph" transform="scale(1 1) rotate(0) translate(4 877.07)">
<title>Simbad Relational Database</title>
<polygon fill="white" stroke="none" points="-4,4 -4,-877.07 1095.28,-877.07 1095.28,4 -4,4"/>
<!-- Measurement tables -->
<g id="node1" class="node">
<title>Measurement tables</title>
<polygon fill="lightgray" stroke="lightgray" stroke-width="6" points="0,-360.28 0,-717.78 127.75,-717.78 127.75,-360.28 0,-360.28"/>
<text text-anchor="middle" x="63.88" y="-698.58" font-family="Times,serif" font-size="16.00">mesHerschel</text>
<polyline fill="none" stroke="lightgray" stroke-width="6" points="0,-690.28 127.75,-690.28"/>
<text text-anchor="middle" x="63.88" y="-671.08" font-family="Times,serif" font-size="16.00">mesXmm</text>
<polyline fill="none" stroke="lightgray" stroke-width="6" points="0,-662.78 127.75,-662.78"/>
<text text-anchor="middle" x="63.88" y="-643.58" font-family="Times,serif" font-size="16.00">mesVelocities</text>
<polyline fill="none" stroke="lightgray" stroke-width="6" points="0,-635.28 127.75,-635.28"/>
<text text-anchor="middle" x="63.88" y="-616.08" font-family="Times,serif" font-size="16.00">mesVar</text>
<polyline fill="none" stroke="lightgray" stroke-width="6" points="0,-607.78 127.75,-607.78"/>
<text text-anchor="middle" x="63.88" y="-588.58" font-family="Times,serif" font-size="16.00">mesRot</text>
<polyline fill="none" stroke="lightgray" stroke-width="6" points="0,-580.28 127.75,-580.28"/>
<text text-anchor="middle" x="63.88" y="-561.08" font-family="Times,serif" font-size="16.00">mesPM</text>
<polyline fill="none" stroke="lightgray" stroke-width="6" points="0,-552.78 127.75,-552.78"/>
<text text-anchor="middle" x="63.88" y="-533.58" font-family="Times,serif" font-size="16.00">mesPLX</text>
<polyline fill="none" stroke="lightgray" stroke-width="6" points="0,-525.28 127.75,-525.28"/>
<text text-anchor="middle" x="63.88" y="-506.08" font-family="Times,serif" font-size="16.00">mesIUE</text>
<polyline fill="none" stroke="lightgray" stroke-width="6" points="0,-497.78 127.75,-497.78"/>
<text text-anchor="middle" x="63.88" y="-478.58" font-family="Times,serif" font-size="16.00">mesISO</text>
<polyline fill="none" stroke="lightgray" stroke-width="6" points="0,-470.28 127.75,-470.28"/>
<text text-anchor="middle" x="63.88" y="-451.08" font-family="Times,serif" font-size="16.00">mesFe_h</text>
<polyline fill="none" stroke="lightgray" stroke-width="6" points="0,-442.78 127.75,-442.78"/>
<text text-anchor="middle" x="63.88" y="-423.58" font-family="Times,serif" font-size="16.00">mesDiameter</text>
<polyline fill="none" stroke="lightgray" stroke-width="6" points="0,-415.28 127.75,-415.28"/>
<text text-anchor="middle" x="63.88" y="-396.08" font-family="Times,serif" font-size="16.00">mesDistance</text>
<polyline fill="none" stroke="lightgray" stroke-width="6" points="0,-387.78 127.75,-387.78"/>
<text text-anchor="middle" x="63.88" y="-368.58" font-family="Times,serif" font-size="16.00">mesSpT</text>
</g>
<!-- basic -->
<g id="node2" class="node">
<title>basic</title>
<g id="a_node2"><a xlink:title="General data about an astronomical object">
<polygon fill="lightgray" stroke="lightgray" stroke-width="6" points="343.27,-574.22 284.52,-574.22 284.52,-538.22 343.27,-538.22 343.27,-574.22"/>
<text text-anchor="middle" x="313.9" y="-550.77" font-family="Times,serif" font-size="16.00">basic</text>
</a>
</g>
</g>
<!-- basic&#45;&#45;Measurement tables -->
<g id="edge1" class="edge">
<title>basic&#45;&#45;Measurement tables</title>
<g id="a_edge1"><a xlink:title="oid:oidref">
<path fill="none" stroke="#9eadc8" stroke-width="7" d="M281.72,-554.01C243.74,-551.39 179.56,-546.98 130.67,-543.62"/>
</a>
</g>
</g>
<!-- allfluxes -->
<g id="node3" class="node">
<title>allfluxes</title>
<g id="a_node3"><a xlink:title="all flux/magnitudes U,B,V,I,J,H,K,u_,g_,r_,i_,z_">
<polygon fill="lightgray" stroke="lightgray" stroke-width="6" points="276.7,-332.98 192.45,-332.98 192.45,-296.98 276.7,-296.98 276.7,-332.98"/>
<text text-anchor="middle" x="234.57" y="-309.53" font-family="Times,serif" font-size="16.00">allfluxes</text>
</a>
</g>
</g>
<!-- allfluxes&#45;&#45;basic -->
<g id="edge8" class="edge">
<title>allfluxes&#45;&#45;basic</title>
<g id="a_edge8"><a xlink:title="oidref:oid">
<path fill="none" stroke="#fe9599" stroke-width="7" d="M241.47,-335.97C256.51,-381.71 292.09,-489.92 307.07,-535.45"/>
</a>
</g>
</g>
<!-- alltypes -->
<g id="node4" class="node">
<title>alltypes</title>
<g id="a_node4"><a xlink:title="all object types concatenated with pipe">
<polygon fill="lightgray" stroke="lightgray" stroke-width="6" points="321,-859.09 240.5,-859.09 240.5,-823.09 321,-823.09 321,-859.09"/>
<text text-anchor="middle" x="280.75" y="-835.64" font-family="Times,serif" font-size="16.00">alltypes</text>
</a>
</g>
</g>
<!-- alltypes&#45;&#45;basic -->
<g id="edge17" class="edge">
<title>alltypes&#45;&#45;basic</title>
<g id="a_edge17"><a xlink:title="oidref:oid">
<path fill="none" stroke="#fe9599" stroke-width="7" d="M283.18,-820.15C289.31,-767.46 305.32,-629.91 311.46,-577.19"/>
</a>
</g>
</g>
<!-- author -->
<g id="node5" class="node">
<title>author</title>
<g id="a_node5"><a xlink:title="Author of a bibliographic reference">
<polygon fill="lightgray" stroke="lightgray" stroke-width="6" points="946.92,-873.07 876.17,-873.07 876.17,-837.07 946.92,-837.07 946.92,-873.07"/>
<text text-anchor="middle" x="911.55" y="-849.62" font-family="Times,serif" font-size="16.00">author</text>
</a>
</g>
</g>
<!-- ref -->
<g id="node18" class="node">
<title>ref</title>
<g id="a_node18"><a xlink:title="Bibliographic reference">
<polygon fill="lightgray" stroke="lightgray" stroke-width="6" points="857.02,-638.3 803.02,-638.3 803.02,-602.3 857.02,-602.3 857.02,-638.3"/>
<text text-anchor="middle" x="830.02" y="-614.85" font-family="Times,serif" font-size="16.00">ref</text>
</a>
</g>
</g>
<!-- author&#45;&#45;ref -->
<g id="edge11" class="edge">
<title>author&#45;&#45;ref</title>
<g id="a_edge11"><a xlink:title="oidbibref:oidbib">
<path fill="none" stroke="#c7ffda" stroke-width="7" d="M904.31,-834.24C888.84,-789.69 852.7,-685.6 837.24,-641.09"/>
</a>
</g>
</g>
<!-- biblio -->
<g id="node6" class="node">
<title>biblio</title>
<g id="a_node6"><a xlink:title="Bibliography">
<polygon fill="lightgray" stroke="lightgray" stroke-width="6" points="204.43,-827.17 141.93,-827.17 141.93,-791.17 204.43,-791.17 204.43,-827.17"/>
<text text-anchor="middle" x="173.18" y="-803.72" font-family="Times,serif" font-size="16.00">biblio</text>
</a>
</g>
</g>
<!-- biblio&#45;&#45;basic -->
<g id="edge14" class="edge">
<title>biblio&#45;&#45;basic</title>
<g id="a_edge14"><a xlink:title="oidref:oid">
<path fill="none" stroke="#f0a8ed" stroke-width="7" d="M184.69,-788.47C211.08,-741.04 275.68,-624.91 302.22,-577.2"/>
</a>
</g>
</g>
<!-- cat -->
<g id="node7" class="node">
<title>cat</title>
<g id="a_node7"><a xlink:title="Catalogues name">
<polygon fill="lightgray" stroke="lightgray" stroke-width="6" points="654,-411 600,-411 600,-375 654,-375 654,-411"/>
<text text-anchor="middle" x="627" y="-387.55" font-family="Times,serif" font-size="16.00">cat</text>
</a>
</g>
</g>
<!-- filter -->
<g id="node8" class="node">
<title>filter</title>
<g id="a_node8"><a xlink:title="Description of a flux filter">
<polygon fill="lightgray" stroke="lightgray" stroke-width="6" points="343.47,-36 287.72,-36 287.72,0 343.47,0 343.47,-36"/>
<text text-anchor="middle" x="315.6" y="-12.55" font-family="Times,serif" font-size="16.00">filter</text>
</a>
</g>
</g>
<!-- flux -->
<g id="node9" class="node">
<title>flux</title>
<g id="a_node9"><a xlink:title="Magnitude/Flux information about an astronomical object">
<polygon fill="lightgray" stroke="lightgray" stroke-width="6" points="374.17,-267.57 320.17,-267.57 320.17,-231.57 374.17,-231.57 374.17,-267.57"/>
<text text-anchor="middle" x="347.17" y="-244.12" font-family="Times,serif" font-size="16.00">flux</text>
</a>
</g>
</g>
<!-- flux&#45;&#45;basic -->
<g id="edge6" class="edge">
<title>flux&#45;&#45;basic</title>
<g id="a_edge6"><a xlink:title="oidref:oid">
<path fill="none" stroke="#fdd791" stroke-width="7" d="M344.94,-270.16C338.89,-325.89 322.25,-479.21 316.17,-535.31"/>
</a>
</g>
</g>
<!-- flux&#45;&#45;filter -->
<g id="edge7" class="edge">
<title>flux&#45;&#45;filter</title>
<g id="a_edge7"><a xlink:title="filter:filtername">
<path fill="none" stroke="#f4b6c2" stroke-width="7" d="M344.32,-228.61C338.31,-184.52 324.41,-82.64 318.43,-38.74"/>
</a>
</g>
</g>
<!-- h_link -->
<g id="node10" class="node">
<title>h_link</title>
<g id="a_node10"><a xlink:title="hierarchy of membership measure">
<polygon fill="lightgray" stroke="lightgray" stroke-width="6" points="164.93,-351.76 99.43,-351.76 99.43,-315.76 164.93,-315.76 164.93,-351.76"/>
<text text-anchor="middle" x="132.18" y="-328.31" font-family="Times,serif" font-size="16.00">h_link</text>
</a>
</g>
</g>
<!-- h_link&#45;&#45;basic -->
<g id="edge12" class="edge">
<title>h_link&#45;&#45;basic</title>
<g id="a_edge12"><a xlink:title="parent:oid">
<path fill="none" stroke="#fec1a7" stroke-width="7" d="M137.7,-354.75C168.25,-392.15 247.04,-488.6 285.36,-535.51"/>
</a>
</g>
</g>
<!-- h_link&#45;&#45;basic -->
<g id="edge13" class="edge">
<title>h_link&#45;&#45;basic</title>
<g id="a_edge13"><a xlink:title="child:oid">
<path fill="none" stroke="#4ce0b3" stroke-width="7" d="M160.71,-354.46C199.07,-401.42 277.99,-498.04 308.47,-535.35"/>
</a>
</g>
</g>
<!-- has_ref -->
<g id="node11" class="node">
<title>has_ref</title>
<g id="a_node11"><a xlink:title="Associations between astronomical objects and their bibliographic references">
<polygon fill="lightgray" stroke="lightgray" stroke-width="6" points="631.84,-583.44 555.84,-583.44 555.84,-547.44 631.84,-547.44 631.84,-583.44"/>
<text text-anchor="middle" x="593.84" y="-559.99" font-family="Times,serif" font-size="16.00">has_ref</text>
</a>
</g>
</g>
<!-- has_ref&#45;&#45;basic -->
<g id="edge10" class="edge">
<title>has_ref&#45;&#45;basic</title>
<g id="a_edge10"><a xlink:title="oidref:oid">
<path fill="none" stroke="#9eadc8" stroke-width="7" d="M553.13,-564.1C497.03,-562.25 397.07,-558.96 345.95,-557.27"/>
</a>
</g>
</g>
<!-- has_ref&#45;&#45;ref -->
<g id="edge9" class="edge">
<title>has_ref&#45;&#45;ref</title>
<g id="a_edge9"><a xlink:title="oidbibref:oidbib">
<path fill="none" stroke="#fff196" stroke-width="7" d="M634.71,-574.94C681.85,-585.88 758.21,-603.62 800.12,-613.36"/>
</a>
</g>
</g>
<!-- ident -->
<g id="node12" class="node">
<title>ident</title>
<g id="a_node12"><a xlink:title="Identifiers of an astronomical object">
<polygon fill="lightgray" stroke="lightgray" stroke-width="6" points="489.52,-401.29 430.77,-401.29 430.77,-365.29 489.52,-365.29 489.52,-401.29"/>
<text text-anchor="middle" x="460.15" y="-377.84" font-family="Times,serif" font-size="16.00">ident</text>
</a>
</g>
</g>
<!-- ident&#45;&#45;basic -->
<g id="edge5" class="edge">
<title>ident&#45;&#45;basic</title>
<g id="a_edge5"><a xlink:title="oidref:oid">
<path fill="none" stroke="#f0a8ed" stroke-width="7" d="M442.51,-404.15C414.4,-437.39 359.75,-502 331.6,-535.28"/>
</a>
</g>
</g>
<!-- ids -->
<g id="node13" class="node">
<title>ids</title>
<g id="a_node13"><a xlink:title="all names concatenated with pipe">
<polygon fill="lightgray" stroke="lightgray" stroke-width="6" points="122.18,-762.31 68.18,-762.31 68.18,-726.31 122.18,-726.31 122.18,-762.31"/>
<text text-anchor="middle" x="95.18" y="-738.86" font-family="Times,serif" font-size="16.00">ids</text>
</a>
</g>
</g>
<!-- ids&#45;&#45;basic -->
<g id="edge2" class="edge">
<title>ids&#45;&#45;basic</title>
<g id="a_edge2"><a xlink:title="oidref:oid">
<path fill="none" stroke="#c7ffda" stroke-width="7" d="M120.84,-723.41C124.88,-720.12 127.75,-717.78 127.75,-717.78 127.75,-717.78 239.67,-620.64 289.94,-577.01"/>
</a>
</g>
</g>
<!-- journals -->
<g id="node14" class="node">
<title>journals</title>
<g id="a_node14"><a xlink:title="Description of all used journals in the database">
<polygon fill="lightgray" stroke="lightgray" stroke-width="6" points="1024,-446.87 941.25,-446.87 941.25,-410.87 1024,-410.87 1024,-446.87"/>
<text text-anchor="middle" x="982.62" y="-423.42" font-family="Times,serif" font-size="16.00">journals</text>
</a>
</g>
</g>
<!-- keywords -->
<g id="node15" class="node">
<title>keywords</title>
<g id="a_node15"><a xlink:title="List of keywords in a paper">
<polygon fill="lightgray" stroke="lightgray" stroke-width="6" points="1091.28,-680.42 997.28,-680.42 997.28,-644.42 1091.28,-644.42 1091.28,-680.42"/>
<text text-anchor="middle" x="1044.28" y="-656.97" font-family="Times,serif" font-size="16.00">keywords</text>
</a>
</g>
</g>
<!-- keywords&#45;&#45;ref -->
<g id="edge15" class="edge">
<title>keywords&#45;&#45;ref</title>
<g id="a_edge15"><a xlink:title="oidbibref:oidbib">
<path fill="none" stroke="#fdd791" stroke-width="7" d="M994.31,-652.6C952.64,-644.41 894.65,-633.01 859.88,-626.17"/>
</a>
</g>
</g>
<!-- otypedef -->
<g id="node16" class="node">
<title>otypedef</title>
<g id="a_node16"><a xlink:title="all names and definitions for the object types">
<polygon fill="lightgray" stroke="lightgray" stroke-width="6" points="447.42,-808.59 359.42,-808.59 359.42,-772.59 447.42,-772.59 447.42,-808.59"/>
<text text-anchor="middle" x="403.42" y="-785.14" font-family="Times,serif" font-size="16.00">otypedef</text>
</a>
</g>
</g>
<!-- otypedef&#45;&#45;basic -->
<g id="edge4" class="edge">
<title>otypedef&#45;&#45;basic</title>
<g id="a_edge4"><a xlink:title="otype:otype">
<path fill="none" stroke="#4ce0b3" stroke-width="7" d="M395.48,-769.79C378.49,-725.31 338.8,-621.4 321.82,-576.97"/>
</a>
</g>
</g>
<!-- otypes -->
<g id="node17" class="node">
<title>otypes</title>
<g id="a_node17"><a xlink:title="List of all object types associated with an object">
<polygon fill="lightgray" stroke="lightgray" stroke-width="6" points="492.81,-671.21 422.81,-671.21 422.81,-635.21 492.81,-635.21 492.81,-671.21"/>
<text text-anchor="middle" x="457.81" y="-647.76" font-family="Times,serif" font-size="16.00">otypes</text>
</a>
</g>
</g>
<!-- otypedef&#45;&#45;otypes -->
<g id="edge3" class="edge">
<title>otypedef&#45;&#45;otypes</title>
<g id="a_edge3"><a xlink:title="otype:otype">
<path fill="none" stroke="#fec1a7" stroke-width="7" d="M411.68,-769.72C421.96,-743.75 439.41,-699.67 449.65,-673.82"/>
</a>
</g>
</g>
<!-- otypes&#45;&#45;basic -->
<g id="edge18" class="edge">
<title>otypes&#45;&#45;basic</title>
<g id="a_edge18"><a xlink:title="oidref:oid">
<path fill="none" stroke="#fff196" stroke-width="7" d="M426.94,-632.4C402.65,-616.04 368.99,-593.34 344.72,-576.99"/>
</a>
</g>
</g>
<!-- ref&#45;&#45;journals -->
<g id="edge16" class="edge">
<title>ref&#45;&#45;journals</title>
<g id="a_edge16"><a xlink:title="journal:journal">
<path fill="none" stroke="#f4b6c2" stroke-width="7" d="M846.65,-599.45C876,-562.63 936.68,-486.5 966.02,-449.7"/>
</a>
</g>
</g>
</g>
</svg>
