<?xml version="1.0" encoding="UTF-8" standalone="no"?>
<!DOCTYPE svg PUBLIC "-//W3C//DTD SVG 1.1//EN"
 "http://www.w3.org/Graphics/SVG/1.1/DTD/svg11.dtd">
<!-- Generated by graphviz version 9.0.0 (0)
 -->
<!-- Title: Simbad Relational Database Pages: 1 -->
<svg width="1032pt" height="832pt"
 viewBox="0.00 0.00 1031.81 832.33" xmlns="http://www.w3.org/2000/svg" xmlns:xlink="http://www.w3.org/1999/xlink">
<g id="graph0" class="graph" transform="scale(1 1) rotate(0) translate(4 828.33)">
<title>Simbad Relational Database</title>
<polygon fill="white" stroke="none" points="-4,4 -4,-828.33 1027.81,-828.33 1027.81,4 -4,4"/>
<!-- Measurement tables -->
<g id="node1" class="node">
<title>Measurement tables</title>
<polygon fill="lightgray" stroke="lightgray" stroke-width="6" points="0,-344.02 0,-672.27 113.5,-672.27 113.5,-344.02 0,-344.02"/>
<text text-anchor="middle" x="56.75" y="-654.97" font-family="Times,serif" font-size="14.00">mesHerschel</text>
<polyline fill="none" stroke="lightgray" stroke-width="6" points="0,-647.02 113.5,-647.02"/>
<text text-anchor="middle" x="56.75" y="-629.72" font-family="Times,serif" font-size="14.00">mesXmm</text>
<polyline fill="none" stroke="lightgray" stroke-width="6" points="0,-621.77 113.5,-621.77"/>
<text text-anchor="middle" x="56.75" y="-604.47" font-family="Times,serif" font-size="14.00">mesVelocities</text>
<polyline fill="none" stroke="lightgray" stroke-width="6" points="0,-596.52 113.5,-596.52"/>
<text text-anchor="middle" x="56.75" y="-579.22" font-family="Times,serif" font-size="14.00">mesVar</text>
<polyline fill="none" stroke="lightgray" stroke-width="6" points="0,-571.27 113.5,-571.27"/>
<text text-anchor="middle" x="56.75" y="-553.97" font-family="Times,serif" font-size="14.00">mesRot</text>
<polyline fill="none" stroke="lightgray" stroke-width="6" points="0,-546.02 113.5,-546.02"/>
<text text-anchor="middle" x="56.75" y="-528.72" font-family="Times,serif" font-size="14.00">mesPM</text>
<polyline fill="none" stroke="lightgray" stroke-width="6" points="0,-520.77 113.5,-520.77"/>
<text text-anchor="middle" x="56.75" y="-503.47" font-family="Times,serif" font-size="14.00">mesPLX</text>
<polyline fill="none" stroke="lightgray" stroke-width="6" points="0,-495.52 113.5,-495.52"/>
<text text-anchor="middle" x="56.75" y="-478.22" font-family="Times,serif" font-size="14.00">mesIUE</text>
<polyline fill="none" stroke="lightgray" stroke-width="6" points="0,-470.27 113.5,-470.27"/>
<text text-anchor="middle" x="56.75" y="-452.97" font-family="Times,serif" font-size="14.00">mesISO</text>
<polyline fill="none" stroke="lightgray" stroke-width="6" points="0,-445.02 113.5,-445.02"/>
<text text-anchor="middle" x="56.75" y="-427.72" font-family="Times,serif" font-size="14.00">mesFe_h</text>
<polyline fill="none" stroke="lightgray" stroke-width="6" points="0,-419.77 113.5,-419.77"/>
<text text-anchor="middle" x="56.75" y="-402.47" font-family="Times,serif" font-size="14.00">mesDiameter</text>
<polyline fill="none" stroke="lightgray" stroke-width="6" points="0,-394.52 113.5,-394.52"/>
<text text-anchor="middle" x="56.75" y="-377.22" font-family="Times,serif" font-size="14.00">mesDistance</text>
<polyline fill="none" stroke="lightgray" stroke-width="6" points="0,-369.27 113.5,-369.27"/>
<text text-anchor="middle" x="56.75" y="-351.97" font-family="Times,serif" font-size="14.00">mesSpT</text>
</g>
<!-- basic -->
<g id="node2" class="node">
<title>basic</title>
<g id="a_node2"><a xlink:title="General data about an astronomical object">
<polygon fill="lightgray" stroke="lightgray" stroke-width="6" points="319.31,-542.35 265.31,-542.35 265.31,-506.35 319.31,-506.35 319.31,-542.35"/>
<text text-anchor="middle" x="292.31" y="-519.68" font-family="Times,serif" font-size="14.00">basic</text>
</a>
</g>
</g>
<!-- basic&#45;&#45;Measurement tables -->
<g id="edge1" class="edge">
<title>basic&#45;&#45;Measurement tables</title>
<g id="a_edge1"><a xlink:title="oid:oidref">
<path fill="none" stroke="lightgray" stroke-width="7" d="M262.36,-525.41C178.81,-528.33 145.89,-528.89 116.23,-523.83"/>
</a>
</g>
</g>
<!-- allfluxes -->
<g id="node3" class="node">
<title>allfluxes</title>
<g id="a_node3"><a xlink:title="all flux/magnitudes U,B,V,I,J,H,K,u_,g_,r_,i_,z_">
<polygon fill="lightgray" stroke="lightgray" stroke-width="6" points="254.84,-316.67 179.59,-316.67 179.59,-280.67 254.84,-280.67 254.84,-316.67"/>
<text text-anchor="middle" x="217.22" y="-293.99" font-family="Times,serif" font-size="14.00">allfluxes</text>
</a>
</g>
</g>
<!-- allfluxes&#45;&#45;basic -->
<g id="edge8" class="edge">
<title>allfluxes&#45;&#45;basic</title>
<g id="a_edge8"><a xlink:title="oidref:oid">
<path fill="none" stroke="lightgray" stroke-width="7" d="M215.4,-319.41C208.11,-405.37 212.09,-417.39 276.61,-503.48"/>
</a>
</g>
</g>
<!-- alltypes -->
<g id="node4" class="node">
<title>alltypes</title>
<g id="a_node4"><a xlink:title="all object types concatenated with pipe">
<polygon fill="lightgray" stroke="lightgray" stroke-width="6" points="297.17,-809.85 224.92,-809.85 224.92,-773.85 297.17,-773.85 297.17,-809.85"/>
<text text-anchor="middle" x="261.04" y="-787.17" font-family="Times,serif" font-size="14.00">alltypes</text>
</a>
</g>
</g>
<!-- alltypes&#45;&#45;basic -->
<g id="edge17" class="edge">
<title>alltypes&#45;&#45;basic</title>
<g id="a_edge17"><a xlink:title="oidref:oid">
<path fill="none" stroke="lightgray" stroke-width="7" d="M256.39,-771.23C240.51,-699.35 243.27,-684.78 286.01,-544.93"/>
</a>
</g>
</g>
<!-- author -->
<g id="node5" class="node">
<title>author</title>
<g id="a_node5"><a xlink:title="Author of a bibliographic reference">
<polygon fill="lightgray" stroke="lightgray" stroke-width="6" points="888.04,-824.33 824.79,-824.33 824.79,-788.33 888.04,-788.33 888.04,-824.33"/>
<text text-anchor="middle" x="856.41" y="-801.65" font-family="Times,serif" font-size="14.00">author</text>
</a>
</g>
</g>
<!-- ref -->
<g id="node18" class="node">
<title>ref</title>
<g id="a_node18"><a xlink:title="Bibliographic reference">
<polygon fill="lightgray" stroke="lightgray" stroke-width="6" points="806.47,-602.8 752.47,-602.8 752.47,-566.8 806.47,-566.8 806.47,-602.8"/>
<text text-anchor="middle" x="779.47" y="-580.13" font-family="Times,serif" font-size="14.00">ref</text>
</a>
</g>
</g>
<!-- author&#45;&#45;ref -->
<g id="edge11" class="edge">
<title>author&#45;&#45;ref</title>
<g id="a_edge11"><a xlink:title="oidbibref:oidbib">
<path fill="none" stroke="lightgray" stroke-width="7" d="M855.29,-785.65C851.89,-729.5 846.08,-715.33 790.1,-605.63"/>
</a>
</g>
</g>
<!-- biblio -->
<g id="node6" class="node">
<title>biblio</title>
<g id="a_node6"><a xlink:title="Bibliography">
<polygon fill="lightgray" stroke="lightgray" stroke-width="6" points="187.28,-778.95 131.53,-778.95 131.53,-742.95 187.28,-742.95 187.28,-778.95"/>
<text text-anchor="middle" x="159.4" y="-756.28" font-family="Times,serif" font-size="14.00">biblio</text>
</a>
</g>
</g>
<!-- biblio&#45;&#45;basic -->
<g id="edge14" class="edge">
<title>biblio&#45;&#45;basic</title>
<g id="a_edge14"><a xlink:title="oidref:oid">
<path fill="none" stroke="lightgray" stroke-width="7" d="M165.43,-740.11C183.47,-678.88 192.39,-664.48 277.39,-545.26"/>
</a>
</g>
</g>
<!-- cat -->
<g id="node7" class="node">
<title>cat</title>
<g id="a_node7"><a xlink:title="Catalogues name">
<polygon fill="lightgray" stroke="lightgray" stroke-width="6" points="622,-391 568,-391 568,-355 622,-355 622,-391"/>
<text text-anchor="middle" x="595" y="-368.32" font-family="Times,serif" font-size="14.00">cat</text>
</a>
</g>
</g>
<!-- filter -->
<g id="node8" class="node">
<title>filter</title>
<g id="a_node8"><a xlink:title="Description of a flux filter">
<polygon fill="lightgray" stroke="lightgray" stroke-width="6" points="320.85,-36 266.85,-36 266.85,0 320.85,0 320.85,-36"/>
<text text-anchor="middle" x="293.85" y="-13.32" font-family="Times,serif" font-size="14.00">filter</text>
</a>
</g>
</g>
<!-- flux -->
<g id="node9" class="node">
<title>flux</title>
<g id="a_node9"><a xlink:title="Magnitude/Flux information about an astronomical object">
<polygon fill="lightgray" stroke="lightgray" stroke-width="6" points="350.73,-254.54 296.73,-254.54 296.73,-218.54 350.73,-218.54 350.73,-254.54"/>
<text text-anchor="middle" x="323.73" y="-231.86" font-family="Times,serif" font-size="14.00">flux</text>
</a>
</g>
</g>
<!-- flux&#45;&#45;basic -->
<g id="edge6" class="edge">
<title>flux&#45;&#45;basic</title>
<g id="a_edge6"><a xlink:title="oidref:oid">
<path fill="none" stroke="lightgray" stroke-width="7" d="M312.42,-257.52C254.05,-366.19 253.02,-378.82 286.62,-503.37"/>
</a>
</g>
</g>
<!-- flux&#45;&#45;filter -->
<g id="edge7" class="edge">
<title>flux&#45;&#45;filter</title>
<g id="a_edge7"><a xlink:title="filter:filtername">
<path fill="none" stroke="lightgray" stroke-width="7" d="M317.97,-215.9C287.01,-104.81 284.02,-89.91 290.9,-38.74"/>
</a>
</g>
</g>
<!-- h_link -->
<g id="node10" class="node">
<title>h_link</title>
<g id="a_node10"><a xlink:title="hierarchy of membership measure">
<polygon fill="lightgray" stroke="lightgray" stroke-width="6" points="149.18,-335.5 91.18,-335.5 91.18,-299.5 149.18,-299.5 149.18,-335.5"/>
<text text-anchor="middle" x="120.18" y="-312.82" font-family="Times,serif" font-size="14.00">h_link</text>
</a>
</g>
</g>
<!-- h_link&#45;&#45;basic -->
<g id="edge12" class="edge">
<title>h_link&#45;&#45;basic</title>
<g id="a_edge12"><a xlink:title="parent:oid">
<path fill="none" stroke="lightgray" stroke-width="7" d="M132.34,-338.44C160.95,-378.22 232.1,-463.95 269.19,-503.59"/>
</a>
</g>
</g>
<!-- h_link&#45;&#45;basic -->
<g id="edge13" class="edge">
<title>h_link&#45;&#45;basic</title>
<g id="a_edge13"><a xlink:title="child:oid">
<path fill="none" stroke="lightgray" stroke-width="7" d="M143.38,-338.35C180.5,-378.04 251.6,-463.71 280.17,-503.45"/>
</a>
</g>
</g>
<!-- has_ref -->
<g id="node11" class="node">
<title>has_ref</title>
<g id="a_node11"><a xlink:title="Associations between astronomical objects and their bibliographic references">
<polygon fill="lightgray" stroke="lightgray" stroke-width="6" points="590.43,-551.09 522.68,-551.09 522.68,-515.09 590.43,-515.09 590.43,-551.09"/>
<text text-anchor="middle" x="556.55" y="-528.42" font-family="Times,serif" font-size="14.00">has_ref</text>
</a>
</g>
</g>
<!-- has_ref&#45;&#45;basic -->
<g id="edge10" class="edge">
<title>has_ref&#45;&#45;basic</title>
<g id="a_edge10"><a xlink:title="oidref:oid">
<path fill="none" stroke="lightgray" stroke-width="7" d="M519.79,-541.56C407.25,-567.24 388.04,-567.6 322.01,-538.01"/>
</a>
</g>
</g>
<!-- has_ref&#45;&#45;ref -->
<g id="edge9" class="edge">
<title>has_ref&#45;&#45;ref</title>
<g id="a_edge9"><a xlink:title="oidbibref:oidbib">
<path fill="none" stroke="lightgray" stroke-width="7" d="M593.29,-547.58C684.61,-583.42 703.87,-588.83 749.68,-586.69"/>
</a>
</g>
</g>
<!-- ident -->
<g id="node12" class="node">
<title>ident</title>
<g id="a_node12"><a xlink:title="Identifiers of an astronomical object">
<polygon fill="lightgray" stroke="lightgray" stroke-width="6" points="457.37,-379.91 403.37,-379.91 403.37,-343.91 457.37,-343.91 457.37,-379.91"/>
<text text-anchor="middle" x="430.37" y="-357.23" font-family="Times,serif" font-size="14.00">ident</text>
</a>
</g>
</g>
<!-- ident&#45;&#45;basic -->
<g id="edge5" class="edge">
<title>ident&#45;&#45;basic</title>
<g id="a_edge5"><a xlink:title="oidref:oid">
<path fill="none" stroke="lightgray" stroke-width="7" d="M404.71,-382.73C329.21,-444.22 318.87,-455.68 300.19,-503.59"/>
</a>
</g>
</g>
<!-- ids -->
<g id="node13" class="node">
<title>ids</title>
<g id="a_node13"><a xlink:title="all names concatenated with pipe">
<polygon fill="lightgray" stroke="lightgray" stroke-width="6" points="112.82,-716.79 58.82,-716.79 58.82,-680.79 112.82,-680.79 112.82,-716.79"/>
<text text-anchor="middle" x="85.82" y="-694.11" font-family="Times,serif" font-size="14.00">ids</text>
</a>
</g>
</g>
<!-- ids&#45;&#45;basic -->
<g id="edge2" class="edge">
<title>ids&#45;&#45;basic</title>
<g id="a_edge2"><a xlink:title="oidref:oid">
<path fill="none" stroke="lightgray" stroke-width="7" d="M106.35,-677.79C142.85,-640.84 160.48,-626.54 265.35,-545.24"/>
</a>
</g>
</g>
<!-- journals -->
<g id="node14" class="node">
<title>journals</title>
<g id="a_node14"><a xlink:title="Description of all used journals in the database">
<polygon fill="lightgray" stroke="lightgray" stroke-width="6" points="960.37,-422.2 886.62,-422.2 886.62,-386.2 960.37,-386.2 960.37,-422.2"/>
<text text-anchor="middle" x="923.5" y="-399.52" font-family="Times,serif" font-size="14.00">journals</text>
</a>
</g>
</g>
<!-- keywords -->
<g id="node15" class="node">
<title>keywords</title>
<g id="a_node15"><a xlink:title="List of keywords in a paper">
<polygon fill="lightgray" stroke="lightgray" stroke-width="6" points="1023.81,-642.56 939.56,-642.56 939.56,-606.56 1023.81,-606.56 1023.81,-642.56"/>
<text text-anchor="middle" x="981.68" y="-619.88" font-family="Times,serif" font-size="14.00">keywords</text>
</a>
</g>
</g>
<!-- keywords&#45;&#45;ref -->
<g id="edge15" class="edge">
<title>keywords&#45;&#45;ref</title>
<g id="a_edge15"><a xlink:title="oidbibref:oidbib">
<path fill="none" stroke="lightgray" stroke-width="7" d="M936.73,-623.08C908.88,-620.75 883.3,-614.12 809.1,-593.18"/>
</a>
</g>
</g>
<!-- otypedef -->
<g id="node16" class="node">
<title>otypedef</title>
<g id="a_node16"><a xlink:title="all names and definitions for the object types">
<polygon fill="lightgray" stroke="lightgray" stroke-width="6" points="415.96,-763.09 337.71,-763.09 337.71,-727.09 415.96,-727.09 415.96,-763.09"/>
<text text-anchor="middle" x="376.83" y="-740.42" font-family="Times,serif" font-size="14.00">otypedef</text>
</a>
</g>
</g>
<!-- otypedef&#45;&#45;basic -->
<g id="edge4" class="edge">
<title>otypedef&#45;&#45;basic</title>
<g id="a_edge4"><a xlink:title="otype:otype">
<path fill="none" stroke="lightgray" stroke-width="7" d="M356.77,-724.41C307.85,-673.14 304.07,-658.09 294.14,-545.34"/>
</a>
</g>
</g>
<!-- otypes -->
<g id="node17" class="node">
<title>otypes</title>
<g id="a_node17"><a xlink:title="List of all object types associated with an object">
<polygon fill="lightgray" stroke="lightgray" stroke-width="6" points="459.78,-633.91 396.53,-633.91 396.53,-597.91 459.78,-597.91 459.78,-633.91"/>
<text text-anchor="middle" x="428.16" y="-611.24" font-family="Times,serif" font-size="14.00">otypes</text>
</a>
</g>
</g>
<!-- otypedef&#45;&#45;otypes -->
<g id="edge3" class="edge">
<title>otypedef&#45;&#45;otypes</title>
<g id="a_edge3"><a xlink:title="otype:otype">
<path fill="none" stroke="lightgray" stroke-width="7" d="M385.02,-724.15C392.75,-704.4 398.45,-690.13 419.89,-636.57"/>
</a>
</g>
</g>
<!-- otypes&#45;&#45;basic -->
<g id="edge18" class="edge">
<title>otypes&#45;&#45;basic</title>
<g id="a_edge18"><a xlink:title="oidref:oid">
<path fill="none" stroke="lightgray" stroke-width="7" d="M393.74,-607.32C344.05,-594.24 333.28,-585.98 305.96,-545.14"/>
</a>
</g>
</g>
<!-- ref&#45;&#45;journals -->
<g id="edge16" class="edge">
<title>ref&#45;&#45;journals</title>
<g id="a_edge16"><a xlink:title="journal:journal">
<path fill="none" stroke="lightgray" stroke-width="7" d="M809.39,-564.41C889.46,-509.41 897.97,-497.66 917.84,-425.16"/>
</a>
</g>
</g>
</g>
</svg>
