<?xml version="1.0" encoding="UTF-8" standalone="no"?>
<!DOCTYPE svg PUBLIC "-//W3C//DTD SVG 1.1//EN"
 "http://www.w3.org/Graphics/SVG/1.1/DTD/svg11.dtd">
<!-- Generated by graphviz version 12.2.1 (0)
 -->
<!-- Title: Simbad Relational Database Pages: 1 -->
<svg width="1113pt" height="898pt"
 viewBox="0.00 0.00 1112.71 898.13" xmlns="http://www.w3.org/2000/svg" xmlns:xlink="http://www.w3.org/1999/xlink">
<g id="graph0" class="graph" transform="scale(1 1) rotate(0) translate(4 894.13)">
<title>Simbad Relational Database</title>
<polygon fill="white" stroke="none" points="-4,4 -4,-894.13 1108.71,-894.13 1108.71,4 -4,4"/>
<!-- Measurement tables -->
<g id="node1" class="node">
<title>Measurement tables</title>
<polygon fill="lightgray" stroke="lightgray" stroke-width="6" points="0,-359.33 0,-744.33 127.75,-744.33 127.75,-359.33 0,-359.33"/>
<text text-anchor="middle" x="63.88" y="-725.13" font-family="Times,serif" font-size="16.00">mesHerschel</text>
<polyline fill="none" stroke="lightgray" stroke-width="6" points="0,-716.83 127.75,-716.83"/>
<text text-anchor="middle" x="63.88" y="-697.63" font-family="Times,serif" font-size="16.00">mesXmm</text>
<polyline fill="none" stroke="lightgray" stroke-width="6" points="0,-689.33 127.75,-689.33"/>
<text text-anchor="middle" x="63.88" y="-670.13" font-family="Times,serif" font-size="16.00">mesVelocities</text>
<polyline fill="none" stroke="lightgray" stroke-width="6" points="0,-661.83 127.75,-661.83"/>
<text text-anchor="middle" x="63.88" y="-642.63" font-family="Times,serif" font-size="16.00">mesVar</text>
<polyline fill="none" stroke="lightgray" stroke-width="6" points="0,-634.33 127.75,-634.33"/>
<text text-anchor="middle" x="63.88" y="-615.13" font-family="Times,serif" font-size="16.00">mesRot</text>
<polyline fill="none" stroke="lightgray" stroke-width="6" points="0,-606.83 127.75,-606.83"/>
<text text-anchor="middle" x="63.88" y="-587.63" font-family="Times,serif" font-size="16.00">mesPM</text>
<polyline fill="none" stroke="lightgray" stroke-width="6" points="0,-579.33 127.75,-579.33"/>
<text text-anchor="middle" x="63.88" y="-560.13" font-family="Times,serif" font-size="16.00">mesPLX</text>
<polyline fill="none" stroke="lightgray" stroke-width="6" points="0,-551.83 127.75,-551.83"/>
<text text-anchor="middle" x="63.88" y="-532.63" font-family="Times,serif" font-size="16.00">mesIUE</text>
<polyline fill="none" stroke="lightgray" stroke-width="6" points="0,-524.33 127.75,-524.33"/>
<text text-anchor="middle" x="63.88" y="-505.13" font-family="Times,serif" font-size="16.00">mesISO</text>
<polyline fill="none" stroke="lightgray" stroke-width="6" points="0,-496.83 127.75,-496.83"/>
<text text-anchor="middle" x="63.88" y="-477.63" font-family="Times,serif" font-size="16.00">mesFe_h</text>
<polyline fill="none" stroke="lightgray" stroke-width="6" points="0,-469.33 127.75,-469.33"/>
<text text-anchor="middle" x="63.88" y="-450.13" font-family="Times,serif" font-size="16.00">mesDiameter</text>
<polyline fill="none" stroke="lightgray" stroke-width="6" points="0,-441.83 127.75,-441.83"/>
<text text-anchor="middle" x="63.88" y="-422.63" font-family="Times,serif" font-size="16.00">mesDistance</text>
<polyline fill="none" stroke="lightgray" stroke-width="6" points="0,-414.33 127.75,-414.33"/>
<text text-anchor="middle" x="63.88" y="-395.13" font-family="Times,serif" font-size="16.00">mesSpT</text>
<polyline fill="none" stroke="lightgray" stroke-width="6" points="0,-386.83 127.75,-386.83"/>
<text text-anchor="middle" x="63.88" y="-367.63" font-family="Times,serif" font-size="16.00">mesOtype</text>
</g>
<!-- basic -->
<g id="node2" class="node">
<title>basic</title>
<g id="a_node2"><a xlink:title="General data about an astronomical object">
<polygon fill="lightgray" stroke="lightgray" stroke-width="6" points="348.61,-587.29 289.86,-587.29 289.86,-551.29 348.61,-551.29 348.61,-587.29"/>
<text text-anchor="middle" x="319.24" y="-563.84" font-family="Times,serif" font-size="16.00">basic</text>
</a>
</g>
</g>
<!-- basic&#45;&#45;Measurement tables -->
<g id="edge1" class="edge">
<title>basic&#45;&#45;Measurement tables</title>
<g id="a_edge1"><a xlink:title="oid:oidref">
<path fill="none" stroke="#9eadc8" stroke-width="7" d="M286.89,-567.08C247.77,-564.4 180.91,-559.83 130.57,-556.39"/>
</a>
</g>
</g>
<!-- allfluxes -->
<g id="node3" class="node">
<title>allfluxes</title>
<g id="a_node3"><a xlink:title="all flux/magnitudes U,B,V,I,J,H,K,u_,g_,r_,i_,z_">
<polygon fill="lightgray" stroke="lightgray" stroke-width="6" points="282.76,-335.59 198.51,-335.59 198.51,-299.59 282.76,-299.59 282.76,-335.59"/>
<text text-anchor="middle" x="240.63" y="-312.14" font-family="Times,serif" font-size="16.00">allfluxes</text>
</a>
</g>
</g>
<!-- allfluxes&#45;&#45;basic -->
<g id="edge8" class="edge">
<title>allfluxes&#45;&#45;basic</title>
<g id="a_edge8"><a xlink:title="oidref:oid">
<path fill="none" stroke="#fe9599" stroke-width="7" d="M247.06,-338.19C261.8,-385.38 297.89,-500.93 312.71,-548.41"/>
</a>
</g>
</g>
<!-- alltypes -->
<g id="node4" class="node">
<title>alltypes</title>
<g id="a_node4"><a xlink:title="all object types concatenated with pipe">
<polygon fill="lightgray" stroke="lightgray" stroke-width="6" points="326.2,-880.46 245.7,-880.46 245.7,-844.46 326.2,-844.46 326.2,-880.46"/>
<text text-anchor="middle" x="285.95" y="-857.01" font-family="Times,serif" font-size="16.00">alltypes</text>
</a>
</g>
</g>
<!-- alltypes&#45;&#45;basic -->
<g id="edge17" class="edge">
<title>alltypes&#45;&#45;basic</title>
<g id="a_edge17"><a xlink:title="oidref:oid">
<path fill="none" stroke="#fe9599" stroke-width="7" d="M288.29,-841.85C294.38,-788.15 310.71,-644.38 316.85,-590.27"/>
</a>
</g>
</g>
<!-- author -->
<g id="node5" class="node">
<title>author</title>
<g id="a_node5"><a xlink:title="Author of a bibliographic reference">
<polygon fill="lightgray" stroke="lightgray" stroke-width="6" points="958.75,-890.13 888,-890.13 888,-854.13 958.75,-854.13 958.75,-890.13"/>
<text text-anchor="middle" x="923.37" y="-866.68" font-family="Times,serif" font-size="16.00">author</text>
</a>
</g>
</g>
<!-- ref -->
<g id="node18" class="node">
<title>ref</title>
<g id="a_node18"><a xlink:title="Bibliographic reference">
<polygon fill="lightgray" stroke="lightgray" stroke-width="6" points="867.86,-652.21 813.86,-652.21 813.86,-616.21 867.86,-616.21 867.86,-652.21"/>
<text text-anchor="middle" x="840.86" y="-628.76" font-family="Times,serif" font-size="16.00">ref</text>
</a>
</g>
</g>
<!-- author&#45;&#45;ref -->
<g id="edge11" class="edge">
<title>author&#45;&#45;ref</title>
<g id="a_edge11"><a xlink:title="oidbibref:oidbib">
<path fill="none" stroke="#c7ffda" stroke-width="7" d="M916.2,-851.43C900.59,-806.43 863.73,-700.13 848.08,-655.03"/>
</a>
</g>
</g>
<!-- biblio -->
<g id="node6" class="node">
<title>biblio</title>
<g id="a_node6"><a xlink:title="Bibliography">
<polygon fill="lightgray" stroke="lightgray" stroke-width="6" points="206.37,-851.27 143.87,-851.27 143.87,-815.27 206.37,-815.27 206.37,-851.27"/>
<text text-anchor="middle" x="175.12" y="-827.82" font-family="Times,serif" font-size="16.00">biblio</text>
</a>
</g>
</g>
<!-- biblio&#45;&#45;basic -->
<g id="edge14" class="edge">
<title>biblio&#45;&#45;basic</title>
<g id="a_edge14"><a xlink:title="oidref:oid">
<path fill="none" stroke="#f0a8ed" stroke-width="7" d="M186.43,-812.56C213.3,-763.33 280.76,-639.77 307.78,-590.27"/>
</a>
</g>
</g>
<!-- cat -->
<g id="node7" class="node">
<title>cat</title>
<g id="a_node7"><a xlink:title="Catalogues name">
<polygon fill="lightgray" stroke="lightgray" stroke-width="6" points="747,-344 693,-344 693,-308 747,-308 747,-344"/>
<text text-anchor="middle" x="720" y="-320.55" font-family="Times,serif" font-size="16.00">cat</text>
</a>
</g>
</g>
<!-- filter -->
<g id="node8" class="node">
<title>filter</title>
<g id="a_node8"><a xlink:title="Description of a flux filter">
<polygon fill="lightgray" stroke="lightgray" stroke-width="6" points="350,-36 294.25,-36 294.25,0 350,0 350,-36"/>
<text text-anchor="middle" x="322.13" y="-12.55" font-family="Times,serif" font-size="16.00">filter</text>
</a>
</g>
</g>
<!-- flux -->
<g id="node9" class="node">
<title>flux</title>
<g id="a_node9"><a xlink:title="Magnitude/Flux information about an astronomical object">
<polygon fill="lightgray" stroke="lightgray" stroke-width="6" points="381.79,-270.86 327.79,-270.86 327.79,-234.86 381.79,-234.86 381.79,-270.86"/>
<text text-anchor="middle" x="354.79" y="-247.41" font-family="Times,serif" font-size="16.00">flux</text>
</a>
</g>
</g>
<!-- flux&#45;&#45;basic -->
<g id="edge6" class="edge">
<title>flux&#45;&#45;basic</title>
<g id="a_edge6"><a xlink:title="oidref:oid">
<path fill="none" stroke="#fdd791" stroke-width="7" d="M352.46,-273.62C346.02,-330.95 328.03,-491.02 321.58,-548.45"/>
</a>
</g>
</g>
<!-- flux&#45;&#45;filter -->
<g id="edge7" class="edge">
<title>flux&#45;&#45;filter</title>
<g id="a_edge7"><a xlink:title="filter:filtername">
<path fill="none" stroke="#f4b6c2" stroke-width="7" d="M351.89,-232.01C345.69,-187.45 331.21,-83.32 325.02,-38.8"/>
</a>
</g>
</g>
<!-- h_link -->
<g id="node10" class="node">
<title>h_link</title>
<g id="a_node10"><a xlink:title="hierarchy of membership measure">
<polygon fill="lightgray" stroke="lightgray" stroke-width="6" points="169.74,-350.64 104.24,-350.64 104.24,-314.64 169.74,-314.64 169.74,-350.64"/>
<text text-anchor="middle" x="136.99" y="-327.19" font-family="Times,serif" font-size="16.00">h_link</text>
</a>
</g>
</g>
<!-- h_link&#45;&#45;basic -->
<g id="edge12" class="edge">
<title>h_link&#45;&#45;basic</title>
<g id="a_edge12"><a xlink:title="parent:oid">
<path fill="none" stroke="#fec1a7" stroke-width="7" d="M141.54,-353.29C171.86,-392.67 253.41,-498.56 291.71,-548.29"/>
</a>
</g>
</g>
<!-- h_link&#45;&#45;basic -->
<g id="edge13" class="edge">
<title>h_link&#45;&#45;basic</title>
<g id="a_edge13"><a xlink:title="child:oid">
<path fill="none" stroke="#4ce0b3" stroke-width="7" d="M164.32,-353.38C202.5,-402.96 284.16,-509 314.61,-548.53"/>
</a>
</g>
</g>
<!-- has_ref -->
<g id="node11" class="node">
<title>has_ref</title>
<g id="a_node11"><a xlink:title="Associations between astronomical objects and their bibliographic references">
<polygon fill="lightgray" stroke="lightgray" stroke-width="6" points="639.83,-596.34 563.83,-596.34 563.83,-560.34 639.83,-560.34 639.83,-596.34"/>
<text text-anchor="middle" x="601.83" y="-572.89" font-family="Times,serif" font-size="16.00">has_ref</text>
</a>
</g>
</g>
<!-- has_ref&#45;&#45;basic -->
<g id="edge10" class="edge">
<title>has_ref&#45;&#45;basic</title>
<g id="a_edge10"><a xlink:title="oidref:oid">
<path fill="none" stroke="#9eadc8" stroke-width="7" d="M561.04,-577.03C504.33,-575.22 402.85,-571.97 351.25,-570.31"/>
</a>
</g>
</g>
<!-- has_ref&#45;&#45;ref -->
<g id="edge9" class="edge">
<title>has_ref&#45;&#45;ref</title>
<g id="a_edge9"><a xlink:title="oidbibref:oidbib">
<path fill="none" stroke="#fff196" stroke-width="7" d="M642.65,-587.88C690.52,-599.07 768.71,-617.34 811.17,-627.27"/>
</a>
</g>
</g>
<!-- ident -->
<g id="node12" class="node">
<title>ident</title>
<g id="a_node12"><a xlink:title="Identifiers of an astronomical object">
<polygon fill="lightgray" stroke="lightgray" stroke-width="6" points="496.79,-408.96 438.04,-408.96 438.04,-372.96 496.79,-372.96 496.79,-408.96"/>
<text text-anchor="middle" x="467.41" y="-385.51" font-family="Times,serif" font-size="16.00">ident</text>
</a>
</g>
</g>
<!-- ident&#45;&#45;basic -->
<g id="edge5" class="edge">
<title>ident&#45;&#45;basic</title>
<g id="a_edge5"><a xlink:title="oidref:oid">
<path fill="none" stroke="#f0a8ed" stroke-width="7" d="M450.13,-411.76C421.65,-446.04 365.2,-513.98 336.64,-548.34"/>
</a>
</g>
</g>
<!-- ids -->
<g id="node13" class="node">
<title>ids</title>
<g id="a_node13"><a xlink:title="all names concatenated with pipe">
<polygon fill="lightgray" stroke="lightgray" stroke-width="6" points="124.26,-789.04 70.26,-789.04 70.26,-753.04 124.26,-753.04 124.26,-789.04"/>
<text text-anchor="middle" x="97.26" y="-765.59" font-family="Times,serif" font-size="16.00">ids</text>
</a>
</g>
</g>
<!-- ids&#45;&#45;basic -->
<g id="edge2" class="edge">
<title>ids&#45;&#45;basic</title>
<g id="a_edge2"><a xlink:title="oidref:oid">
<path fill="none" stroke="#c7ffda" stroke-width="7" d="M120.98,-750.26C124.92,-746.81 127.75,-744.33 127.75,-744.33 127.75,-744.33 245.8,-636.42 296.52,-590.06"/>
</a>
</g>
</g>
<!-- journals -->
<g id="node14" class="node">
<title>journals</title>
<g id="a_node14"><a xlink:title="Description of all used journals in the database">
<polygon fill="lightgray" stroke="lightgray" stroke-width="6" points="1036.75,-458.15 954,-458.15 954,-422.15 1036.75,-422.15 1036.75,-458.15"/>
<text text-anchor="middle" x="995.37" y="-434.7" font-family="Times,serif" font-size="16.00">journals</text>
</a>
</g>
</g>
<!-- keywords -->
<g id="node15" class="node">
<title>keywords</title>
<g id="a_node15"><a xlink:title="List of keywords in a paper">
<polygon fill="lightgray" stroke="lightgray" stroke-width="6" points="1104.71,-694.83 1010.71,-694.83 1010.71,-658.83 1104.71,-658.83 1104.71,-694.83"/>
<text text-anchor="middle" x="1057.71" y="-671.38" font-family="Times,serif" font-size="16.00">keywords</text>
</a>
</g>
</g>
<!-- keywords&#45;&#45;ref -->
<g id="edge15" class="edge">
<title>keywords&#45;&#45;ref</title>
<g id="a_edge15"><a xlink:title="oidbibref:oidbib">
<path fill="none" stroke="#fdd791" stroke-width="7" d="M1007.96,-667.05C965.57,-658.72 906.06,-647.02 870.69,-640.07"/>
</a>
</g>
</g>
<!-- otypedef -->
<g id="node16" class="node">
<title>otypedef</title>
<g id="a_node16"><a xlink:title="all names and definitions for the object types">
<polygon fill="lightgray" stroke="lightgray" stroke-width="6" points="453.17,-826.71 365.17,-826.71 365.17,-790.71 453.17,-790.71 453.17,-826.71"/>
<text text-anchor="middle" x="409.17" y="-803.26" font-family="Times,serif" font-size="16.00">otypedef</text>
</a>
</g>
</g>
<!-- otypedef&#45;&#45;basic -->
<g id="edge4" class="edge">
<title>otypedef&#45;&#45;basic</title>
<g id="a_edge4"><a xlink:title="otype:otype">
<path fill="none" stroke="#4ce0b3" stroke-width="7" d="M401.34,-787.88C384.33,-742.6 344.15,-635.63 327.11,-590.24"/>
</a>
</g>
</g>
<!-- otypes -->
<g id="node17" class="node">
<title>otypes</title>
<g id="a_node17"><a xlink:title="List of all object types associated with an object">
<polygon fill="lightgray" stroke="lightgray" stroke-width="6" points="499.26,-685.27 429.26,-685.27 429.26,-649.27 499.26,-649.27 499.26,-685.27"/>
<text text-anchor="middle" x="464.26" y="-661.82" font-family="Times,serif" font-size="16.00">otypes</text>
</a>
</g>
</g>
<!-- otypedef&#45;&#45;otypes -->
<g id="edge3" class="edge">
<title>otypedef&#45;&#45;otypes</title>
<g id="a_edge3"><a xlink:title="otype:otype">
<path fill="none" stroke="#fec1a7" stroke-width="7" d="M417.3,-787.84C427.71,-761.1 445.67,-715.01 456.1,-688.22"/>
</a>
</g>
</g>
<!-- otypes&#45;&#45;basic -->
<g id="edge18" class="edge">
<title>otypes&#45;&#45;basic</title>
<g id="a_edge18"><a xlink:title="oidref:oid">
<path fill="none" stroke="#fff196" stroke-width="7" d="M433.51,-646.49C408.98,-629.92 374.78,-606.81 350.2,-590.21"/>
</a>
</g>
</g>
<!-- ref&#45;&#45;journals -->
<g id="edge16" class="edge">
<title>ref&#45;&#45;journals</title>
<g id="a_edge16"><a xlink:title="journal:journal">
<path fill="none" stroke="#f4b6c2" stroke-width="7" d="M857.4,-613.44C887.06,-576.19 948.98,-498.42 978.72,-461.06"/>
</a>
</g>
</g>
</g>
</svg>
